<?xml version="1.0" encoding="utf-8"?>
<!-- Generator: Adobe Illustrator 24.3.0, SVG Export Plug-In . SVG Version: 6.00 Build 0)  -->
<svg version="1.1" id="Слой_1" xmlns="http://www.w3.org/2000/svg" xmlns:xlink="http://www.w3.org/1999/xlink" x="0px" y="0px"
	 viewBox="0 0 478 580" style="enable-background:new 0 0 478 580;" xml:space="preserve">
<style type="text/css">
	.st0{fill:#FFFFFF;}
</style>
<g>
	<g>
		<path class="st0" d="M514.08,616c-183.36,0-366.72,0-550.08,0c0-217.36,0-434.72,0-652.08c183.36,0,366.72,0,550.08,0
			C514.08,181.28,514.08,398.64,514.08,616z M238.59,385.18c6.42-7.14,12.05-13.6,17.91-19.86c5.14-5.49,10.47-10.8,15.8-16.1
			c5.43-5.4,11.04-10.62,16.44-16.05c5.67-5.7,11.21-11.53,16.76-17.35c4.89-5.13,10.37-9.87,14.43-15.61
			c7.04-9.94,12.4-20.75,16.09-32.59c10.25-32.9,3.42-63.09-15.7-90.09c-15.61-22.04-37.82-35.79-65.06-40.21
			c-16.83-2.73-33.49-2.05-49.62,3.47c-10.81,3.7-21.33,8.37-29.96,16.35c-9.37,8.66-18.86,17.18-28.56,25.99
			c6.76,7.27,12.53,13.64,18.59,19.72c0.76,0.76,3.68,0.59,4.61-0.25c4.6-4.16,9.17-8.44,13.2-13.15
			c7.61-8.93,17.17-14.74,27.84-19.19c29.85-12.44,58.91-1.97,76.85,15c12.35,11.68,19.94,26.62,21.81,44.42
			c2.79,26.55-6.52,47.8-25.24,65.82c-9.68,9.32-19.06,18.95-28.61,28.39c-6.12,6.05-12.32,12.03-19.43,18.97
			c-53.67-53.94-107.3-107.82-161.38-162.17c-2.77,9.33-6.47,18-7.76,27.03c-1.81,12.68-2.5,25.61-2.48,38.43
			c0.04,25.53,6.13,49.77,18.34,72.23c5.36,9.86,10.96,19.76,17.76,28.63c6.52,8.49,14.74,15.67,22.23,23.4
			c11.71,12.09,23.29,24.3,35.18,36.2c14.37,14.37,29.01,28.46,43.55,42.66c12.15,11.87,24.33,23.73,36.76,35.85
			c2.69-2.71,5.81-5.89,8.96-9.04c27.23-27.31,54.69-54.39,81.62-81.99c18.25-18.71,38.37-35.65,53.15-57.74
			c10.32-15.43,18.28-31.84,22.94-49.56c5.96-22.62,9.01-45.73,5.01-69.23c-2.62-15.42-5.61-30.83-12.16-45.05
			c-4.77-10.35-10.5-20.42-17.03-29.75c-7.14-10.22-14.81-20.38-23.81-28.9c-16.43-15.56-35.1-27.95-56.74-35.73
			c-17.25-6.21-34.72-10.82-53.02-11.82c-36.91-2.03-70.99,7.44-102.39,26.52c-17.25,10.48-31.41,24.73-44.61,39.89
			c-0.88,1.01-0.94,4.2-0.09,5.01c6.2,5.89,12.72,11.43,19.44,17.34c6.97-7.41,13.18-15.26,20.63-21.66
			c14.32-12.29,29.94-22.38,48.1-28.79c21.75-7.68,43.65-9.86,66.42-7.62c13.47,1.33,26.45,4.64,38.65,9.81
			c10.39,4.4,19.74,11.34,29.34,17.48c13.14,8.42,23.1,19.99,32.46,32.4c11.43,15.14,18.3,32.2,22.84,50.22
			c4.99,19.8,5.2,40.19,1.12,60.03c-2.84,13.82-7.99,27.37-13.8,40.28c-3.85,8.54-10.18,16.17-16.32,23.42
			c-7.79,9.19-16.44,17.65-24.85,26.31c-7.09,7.29-14.36,14.4-21.54,21.61c-7.9,7.93-15.8,15.85-23.69,23.79
			c-7.65,7.71-15.27,15.46-22.93,23.15c-6.05,6.07-12.15,12.09-18.84,18.74c-5.05-5.39-9.5-10.27-14.09-15
			c-4.98-5.12-10.06-10.13-15.16-15.13c-7.61-7.45-15.37-14.75-22.87-22.3c-7.61-7.66-14.84-15.71-22.48-23.33
			c-9.7-9.69-20.09-18.72-29.37-28.79c-9.51-10.31-17.82-21.57-24.21-34.32c-8.03-16.02-12.43-32.95-15.18-50.44
			c-0.87-5.5-0.9-11.13-1.24-15.79C141.19,287.31,189.14,335.5,238.59,385.18z M239.91,536.16c-3.3-3.08-5.65-5.15-7.85-7.35
			c-16.39-16.4-32.74-32.84-49.13-49.25c-14.3-14.33-28.65-28.61-42.94-42.95c-14.01-14.05-27.77-28.37-42.04-42.16
			c-17.32-16.75-32.21-35.41-43.06-56.84c-6.5-12.83-10.71-26.84-15.78-40.38c-6.29-16.83-7-34.63-7.86-52.23
			c-0.53-10.73,1.43-21.56,1.94-32.36c0.99-20.78,7.85-40.05,15.94-58.75c7.27-16.8,17.17-32.26,28.71-46.61
			c17.91-22.26,39.5-40.2,64.58-53.48c19.51-10.33,40.19-17.63,62.43-20.85c21.42-3.1,42.53-3.79,63.93-0.79
			c14.76,2.07,29.13,5.37,42.99,10.77c7.4,2.88,14.82,5.91,21.76,9.73c9.51,5.25,18.79,11,27.75,17.15
			c6.36,4.36,12.04,9.73,18,14.67c2.32,1.93,4.34,1.66,6.2-0.64c5.21-6.43,10.42-12.85,15.59-19.22c-0.46-0.8-0.63-1.42-1.03-1.73
			c-14.01-10.7-27.37-22.17-42.98-30.8c-21.24-11.73-43.17-20.73-66.99-26.08c-31.23-7.02-62.26-8.55-93.48-1.66
			c-14.23,3.14-28.34,7.11-42.2,11.65c-8.77,2.87-17.2,7.04-25.35,11.42c-8.26,4.44-16.36,9.39-23.88,14.99
			c-9.85,7.34-19.4,15.18-28.46,23.48c-7.92,7.26-15.43,15.08-22.29,23.35c-5.86,7.05-10.88,14.88-15.66,22.74
			c-5.95,9.78-12.13,19.57-16.64,30.04c-6.88,15.95-12.93,32.31-15.53,49.68c-1.57,10.49-3.9,20.91-4.72,31.46
			c-1.5,19.4-0.52,38.72,3.26,57.93c3.08,15.65,6.56,31.13,12.65,45.9c3.27,7.91,6.46,15.91,10.49,23.42
			c4.6,8.56,9.81,16.83,15.3,24.85c5.52,8.06,11.48,15.84,17.68,23.39c4.41,5.37,9.44,10.23,14.35,15.16
			c5.54,5.57,11.29,10.92,16.86,16.45c5.82,5.78,11.55,11.64,17.3,17.49c5.24,5.34,10.43,10.74,15.69,16.06
			c5.39,5.45,10.86,10.84,16.28,16.27c5.4,5.41,10.8,10.82,16.19,16.25c5.29,5.34,10.5,10.77,15.86,16.03
			c5.6,5.5,11.47,10.71,16.99,16.29c7.31,7.39,14.45,14.95,21.54,22.55c8.47,9.07,16.81,18.27,25.65,27.9
			c11.42-11.52,21.37-21.55,31.32-31.59c9.34-9.41,18.65-18.85,28.02-28.23c10.01-10.02,20.1-19.95,30.09-29.99
			c9.7-9.74,19.27-19.61,28.96-29.35c10.24-10.3,20.61-20.47,30.84-30.78c7.1-7.14,14.26-14.24,21.04-21.67
			c8.33-9.13,17.24-17.95,24.16-28.1c7.97-11.68,14.73-24.34,20.73-37.18c5.54-11.85,9.24-24.55,13.98-36.78
			c6.14-15.85,7.51-32.66,8.82-49.24c2.43-30.88-0.86-61.56-10.82-90.87c-5.91-17.39-15.19-33.63-22.9-50.42
			c-1.35-2.93-3.07-3.24-5.75-1.62c-7.14,4.32-14.38,8.48-21.57,12.7c2.01,4.06,3.79,8.1,5.95,11.92
			c9.05,16.04,15.7,32.9,20.16,50.87c7.44,29.99,8.58,60.04,2.35,90.17c-2.84,13.76-6.58,27.52-11.74,40.55
			c-4.87,12.3-11.47,24.07-18.54,35.3c-6.22,9.86-13.51,19.24-21.45,27.78c-13.52,14.53-27.92,28.23-41.94,42.29
			c-16.48,16.52-32.97,33.05-49.44,49.58c-14.52,14.58-29.08,29.12-43.52,43.78C251.01,524,245.6,530.06,239.91,536.16z
			 M237.91,269.15c14.31,1.42,28.1-12.82,28.26-28.03c0.17-16.3-13.95-28.75-28.38-28.69c-14.18,0.06-28.16,11.82-28.29,28.34
			C209.38,256.73,223.61,270.4,237.91,269.15z"/>
		<path d="M238.59,385.18c-49.44-49.68-97.4-97.86-145.38-146.07c0.35,4.66,0.37,10.29,1.24,15.79
			c2.75,17.48,7.15,34.42,15.18,50.44c6.4,12.75,14.71,24,24.21,34.32c9.28,10.07,19.67,19.1,29.37,28.79
			c7.64,7.63,14.87,15.67,22.48,23.33c7.5,7.56,15.27,14.85,22.87,22.3c5.1,5,10.18,10.01,15.16,15.13c4.6,4.73,9.04,9.61,14.09,15
			c6.69-6.65,12.79-12.67,18.84-18.74c7.67-7.7,15.28-15.44,22.93-23.15c7.89-7.94,15.79-15.87,23.69-23.79
			c7.18-7.2,14.45-14.31,21.54-21.61c8.41-8.65,17.06-17.11,24.85-26.31c6.14-7.25,12.48-14.87,16.32-23.42
			c5.81-12.91,10.97-26.46,13.8-40.28c4.07-19.84,3.87-40.24-1.12-60.03c-4.54-18.01-11.41-35.08-22.84-50.22
			c-9.36-12.41-19.32-23.98-32.46-32.4c-9.6-6.15-18.95-13.08-29.34-17.48c-12.2-5.17-25.18-8.48-38.65-9.81
			c-22.77-2.24-44.67-0.06-66.42,7.62c-18.16,6.41-33.78,16.5-48.1,28.79c-7.45,6.39-13.65,14.24-20.63,21.66
			c-6.72-5.91-13.24-11.45-19.44-17.34c-0.85-0.81-0.79-4,0.09-5.01c13.19-15.16,27.36-29.41,44.61-39.89
			c31.4-19.08,65.48-28.55,102.39-26.52c18.31,1.01,35.77,5.61,53.02,11.82c21.63,7.79,40.3,20.18,56.74,35.73
			c9,8.52,16.67,18.69,23.81,28.9c6.52,9.34,12.26,19.4,17.03,29.75c6.55,14.23,9.54,29.63,12.16,45.05
			c4,23.5,0.94,46.61-5.01,69.23c-4.66,17.71-12.62,34.13-22.94,49.56c-14.78,22.09-34.89,39.02-53.15,57.74
			c-26.93,27.6-54.39,54.69-81.62,81.99c-3.15,3.15-6.27,6.33-8.96,9.04c-12.44-12.12-24.61-23.98-36.76-35.85
			c-14.54-14.2-29.18-28.29-43.55-42.66c-11.9-11.89-23.48-24.11-35.18-36.2c-7.49-7.74-15.71-14.91-22.23-23.4
			c-6.81-8.86-12.4-18.76-17.76-28.63c-12.22-22.46-18.3-46.71-18.34-72.23c-0.02-12.82,0.67-25.75,2.48-38.43
			c1.29-9.02,4.99-17.7,7.76-27.03c54.08,54.35,107.71,108.23,161.38,162.17c7.11-6.93,13.3-12.91,19.43-18.97
			c9.55-9.45,18.94-19.07,28.61-28.39c18.71-18.02,28.03-39.27,25.24-65.82c-1.87-17.8-9.46-32.73-21.81-44.42
			c-17.94-16.97-47-27.44-76.85-15c-10.67,4.45-20.22,10.26-27.84,19.19c-4.02,4.72-8.59,8.99-13.2,13.15
			c-0.93,0.84-3.85,1.01-4.61,0.25c-6.06-6.08-11.82-12.46-18.59-19.72c9.7-8.81,19.19-17.34,28.56-25.99
			c8.63-7.98,19.15-12.65,29.96-16.35c16.12-5.52,32.79-6.2,49.62-3.47c27.25,4.42,49.45,18.17,65.06,40.21
			c19.12,27,25.95,57.19,15.7,90.09c-3.69,11.84-9.05,22.65-16.09,32.59c-4.06,5.73-9.54,10.47-14.43,15.61
			c-5.55,5.82-11.09,11.65-16.76,17.35c-5.4,5.43-11.01,10.65-16.44,16.05c-5.33,5.3-10.67,10.61-15.8,16.1
			C250.64,371.57,245.01,378.03,238.59,385.18z"/>
		<path d="M239.91,536.16c5.69-6.1,11.1-12.16,16.8-17.94c14.44-14.66,29-29.2,43.52-43.78c16.47-16.53,32.96-33.06,49.44-49.58
			c14.02-14.06,28.43-27.76,41.94-42.29c7.94-8.54,15.24-17.91,21.45-27.78c7.07-11.22,13.67-22.99,18.54-35.3
			c5.16-13.03,8.9-26.79,11.74-40.55c6.22-30.14,5.09-60.18-2.35-90.17c-4.46-17.97-11.11-34.83-20.16-50.87
			c-2.16-3.82-3.94-7.87-5.95-11.92c7.19-4.22,14.43-8.38,21.57-12.7c2.68-1.62,4.4-1.31,5.75,1.62
			c7.71,16.78,16.99,33.02,22.9,50.42c9.96,29.3,13.25,59.99,10.82,90.87c-1.3,16.58-2.68,33.38-8.82,49.24
			c-4.74,12.24-8.44,24.93-13.98,36.78c-6,12.84-12.76,25.5-20.73,37.18c-6.92,10.14-15.83,18.96-24.16,28.1
			c-6.78,7.44-13.94,14.53-21.04,21.67c-10.24,10.3-20.6,20.48-30.84,30.78c-9.69,9.74-19.27,19.61-28.96,29.35
			c-9.99,10.04-20.08,19.97-30.09,29.99c-9.37,9.38-18.69,18.82-28.02,28.23c-9.95,10.03-19.9,20.07-31.32,31.59
			c-8.84-9.63-17.18-18.83-25.65-27.9c-7.09-7.6-14.23-15.16-21.54-22.55c-5.52-5.58-11.39-10.79-16.99-16.29
			c-5.36-5.27-10.57-10.69-15.86-16.03c-5.38-5.43-10.78-10.84-16.19-16.25c-5.42-5.43-10.88-10.81-16.28-16.27
			c-5.26-5.32-10.44-10.72-15.69-16.06c-5.75-5.85-11.48-11.72-17.3-17.49c-5.57-5.53-11.32-10.88-16.86-16.45
			c-4.91-4.93-9.94-9.8-14.35-15.16c-6.2-7.55-12.16-15.33-17.68-23.39c-5.49-8.02-10.7-16.29-15.3-24.85
			c-4.04-7.52-7.23-15.51-10.49-23.42c-6.1-14.77-9.58-30.25-12.65-45.9c-3.78-19.21-4.77-38.53-3.26-57.93
			c0.82-10.54,3.15-20.97,4.72-31.46c2.6-17.37,8.65-33.73,15.53-49.68c4.51-10.47,10.7-20.26,16.64-30.04
			c4.78-7.86,9.8-15.69,15.66-22.74c6.86-8.26,14.37-16.09,22.29-23.35c9.06-8.3,18.61-16.14,28.46-23.48
			c7.52-5.6,15.62-10.54,23.88-14.99c8.15-4.39,16.59-8.56,25.35-11.42c13.86-4.54,27.96-8.51,42.2-11.65
			c31.22-6.89,62.25-5.35,93.48,1.66c23.82,5.35,45.75,14.35,66.99,26.08c15.61,8.62,28.98,20.09,42.98,30.8
			c0.4,0.31,0.57,0.93,1.03,1.73c-5.17,6.37-10.38,12.8-15.59,19.22c-1.86,2.3-3.88,2.56-6.2,0.64c-5.96-4.95-11.64-10.31-18-14.67
			c-8.96-6.15-18.24-11.9-27.75-17.15c-6.94-3.83-14.36-6.85-21.76-9.73c-13.85-5.4-28.23-8.7-42.99-10.77
			c-21.4-3-42.52-2.31-63.93,0.79c-22.24,3.22-42.92,10.51-62.43,20.85c-25.08,13.28-46.67,31.22-64.58,53.48
			c-11.54,14.35-21.44,29.81-28.71,46.61c-8.1,18.7-14.95,37.97-15.94,58.75c-0.52,10.8-2.47,21.63-1.94,32.36
			c0.87,17.6,1.57,35.4,7.86,52.23c5.06,13.54,9.28,27.55,15.78,40.38c10.85,21.43,25.74,40.09,43.06,56.84
			c14.26,13.79,28.02,28.11,42.04,42.16c14.29,14.34,28.64,28.62,42.94,42.95c16.38,16.41,32.74,32.85,49.13,49.25
			C234.26,531.01,236.61,533.08,239.91,536.16z"/>
		<path d="M237.91,269.15c-14.3,1.25-28.53-12.42-28.41-28.39c0.13-16.52,14.11-28.28,28.29-28.34
			c14.43-0.06,28.55,12.39,28.38,28.69C266.01,256.33,252.22,270.57,237.91,269.15z"/>
	</g>
</g>
</svg>
